HIERARCHY
ROOT root
{
	OFFSET 0.000000 0.000000 0.000000
	CHANNELS 6 Xposition Yposition Zposition Zrotation Yrotation Xrotation
	JOINT lhip
	{
		OFFSET 0.058581 -0.082280 -0.017664
		CHANNELS 3 Zrotation Yrotation Xrotation
		JOINT lknee
		{
			OFFSET 0.043451 -0.386469 0.008037
			CHANNELS 3 Zrotation Yrotation Xrotation
			JOINT lankle
			{
				OFFSET -0.014790 -0.426874 -0.037428
				CHANNELS 3 Zrotation Yrotation Xrotation
				JOINT ltoe
				{
					OFFSET 0.041054 -0.060286 0.122042
					CHANNELS 3 Zrotation Yrotation Xrotation
					End Site
					{
						OFFSET 0.000000 0.000000 0.000000
					}
				}
			}
		}
	}
	JOINT rhip
	{
		OFFSET -0.060310 -0.090513 -0.013543
		CHANNELS 3 Zrotation Yrotation Xrotation
		JOINT rknee
		{
			OFFSET -0.043257 -0.383688 -0.004843
			CHANNELS 3 Zrotation Yrotation Xrotation
			JOINT rankle
			{
				OFFSET 0.019056 -0.420046 -0.034562
				CHANNELS 3 Zrotation Yrotation Xrotation
				JOINT rtoe
				{
					OFFSET -0.034840 -0.062106 0.130323
					CHANNELS 3 Zrotation Yrotation Xrotation
					End Site
					{
						OFFSET 0.000000 0.000000 0.000000
					}
				}
			}
		}
	}
	JOINT lowerback
	{
		OFFSET 0.004439 0.124404 -0.038385
		CHANNELS 3 Zrotation Yrotation Xrotation
		JOINT upperback
		{
			OFFSET 0.004488 0.137956 0.026820
			CHANNELS 3 Zrotation Yrotation Xrotation
			JOINT chest
			{
				OFFSET -0.002265 0.056032 0.002855
				CHANNELS 3 Zrotation Yrotation Xrotation
				JOINT lowerneck
				{
					OFFSET -0.013390 0.211636 -0.033468
					CHANNELS 3 Zrotation Yrotation Xrotation
					JOINT upperneck
					{
						OFFSET 0.010113 0.088937 0.050410
						CHANNELS 3 Zrotation Yrotation Xrotation
						End Site
						{
							OFFSET 0.000000 0.000000 0.000000
						}
					}
				}
				JOINT lclavicle
				{
					OFFSET 0.071702 0.114000 -0.018898
					CHANNELS 3 Zrotation Yrotation Xrotation
					JOINT lshoulder
					{
						OFFSET 0.122921 0.045205 -0.019046
						CHANNELS 3 Zrotation Yrotation Xrotation
						JOINT lelbow
						{
							OFFSET 0.255332 -0.015649 -0.022946
							CHANNELS 3 Zrotation Yrotation Xrotation
							JOINT lwrist
							{
								OFFSET 0.265709 0.012698 -0.007375
								CHANNELS 3 Zrotation Yrotation Xrotation
								End Site
								{
									OFFSET 0.000000 0.000000 0.000000
								}
							}
						}
					}
				}
				JOINT rclavicle
				{
					OFFSET -0.082954 0.112472 -0.023707
					CHANNELS 3 Zrotation Yrotation Xrotation
					JOINT rshoulder
					{
						OFFSET -0.113228 0.046853 -0.008472
						CHANNELS 3 Zrotation Yrotation Xrotation
						JOINT relbow
						{
							OFFSET -0.260127 -0.014369 -0.031269
							CHANNELS 3 Zrotation Yrotation Xrotation
							JOINT rwrist
							{
								OFFSET -0.269108 0.006794 -0.006027
								CHANNELS 3 Zrotation Yrotation Xrotation
								End Site
								{
									OFFSET 0.000000 0.000000 0.000000
								}
							}
						}
					}
				}
			}
		}
	}
}
MOTION
Frames: 16
Frame Time: 0.033333
1.832221 0.369922 0.964920 0.287176 5.451831 95.885627 4.892434 -6.659516 -20.616232 -4.870397 1.149567 24.289637 11.691637 14.384081 -28.128834 0.000000 -0.000000 0.000000 -1.374922 7.204773 -30.017894 5.275102 -3.849477 34.866416 2.473851 -8.330164 -11.020704 0.000000 -0.000000 0.000000 1.028934 0.622810 4.643406 4.506562 0.080782 -2.383098 1.475302 0.133303 -0.167959 9.928273 16.719482 -10.655942 7.687722 12.659203 5.770433 -30.884686 -6.642579 9.108404 -58.436366 -8.185521 12.065244 20.218689 -46.405507 -11.863004 9.923045 -12.517536 -26.733184 27.370417 3.818239 8.793313 59.304948 6.937123 12.603663 -39.042028 51.834510 -37.848198 -8.183782 6.900107 -49.051690 
1.832626 0.374010 0.958333 0.048982 5.885456 96.148140 6.038392 -6.466251 -22.822053 -5.720403 2.149342 27.276943 11.716857 14.379118 -29.314918 0.000000 -0.000000 0.000000 -1.941135 6.982808 -33.671320 6.031994 -6.138682 40.635512 3.593882 -6.016347 -11.522439 0.000000 -0.000000 0.000000 1.038463 0.509283 5.311275 4.919991 0.198123 -1.930859 1.246115 0.267229 -0.381096 10.617563 17.962636 -10.368953 7.604782 12.233203 5.945718 -30.918049 -6.953314 8.919760 -57.518757 -8.219222 12.276221 21.325274 -49.511150 -12.740023 8.884184 -13.747710 -27.906832 27.529336 3.420346 8.782766 58.779580 5.825395 12.804585 -41.450386 57.920233 -37.597074 -4.031987 10.373230 -53.863580 
1.832198 0.377138 0.951445 -0.374692 6.304131 96.294766 6.984091 -6.010525 -24.689740 -6.339328 2.924209 30.144499 11.616021 14.444722 -30.586140 0.000000 -0.000000 0.000000 -2.257789 6.775750 -36.711945 5.570685 -8.315165 46.077767 4.421313 -4.739278 -11.733440 0.000000 -0.000000 0.000000 0.994858 0.556236 5.752645 5.175536 0.583202 -1.641152 1.055262 0.440426 -0.348707 11.871894 18.854908 -9.553980 7.491974 11.751429 6.346744 -31.163173 -6.856766 8.683553 -56.578404 -8.542354 12.183955 22.469373 -51.721844 -13.680978 7.071436 -15.167561 -27.895978 27.534015 2.960333 8.245602 57.873613 4.145213 12.370971 -41.955885 63.812404 -36.037414 0.313141 15.315030 -59.090358 
1.830961 0.379889 0.943209 -1.058761 6.563540 96.183330 7.519913 -5.237245 -26.088451 -6.949093 3.115096 32.936468 11.501120 15.036000 -31.958685 0.000000 -0.000000 0.000000 -2.692526 6.064365 -39.132285 4.609401 -10.146629 51.850339 5.185693 -4.767792 -12.206741 0.000000 -0.000000 0.000000 0.672025 0.475319 6.855505 5.146510 1.452321 -2.912191 1.013051 0.240974 0.246550 14.275122 18.430344 -6.825889 7.078866 12.589563 6.639217 -31.533332 -5.511634 8.223406 -55.723865 -9.417685 12.722131 23.176575 -52.867151 -13.710009 5.893322 -15.797914 -29.467764 27.410655 2.391418 6.299800 56.332231 1.432265 13.422424 -38.563134 69.398063 -31.733063 2.645958 20.316021 -65.564453 
1.830349 0.380687 0.937886 -1.462915 6.702407 96.425087 8.256595 -5.412958 -27.382761 -6.989007 4.441798 34.637004 12.001080 14.853949 -32.799520 0.000000 -0.000000 0.000000 -3.529236 5.580641 -40.620986 3.759676 -11.631298 55.386769 5.012133 -4.749899 -12.191151 0.000000 -0.000000 0.000000 0.446371 0.811094 6.130546 5.148950 1.503352 -1.442916 1.276935 0.785926 -0.039665 13.423016 17.064762 -6.920842 9.456874 13.498683 7.471634 -31.646749 -5.774274 7.831170 -55.484776 -9.190574 11.583177 23.588260 -53.903541 -15.521489 3.805588 -17.163829 -27.931677 26.255156 2.424444 8.405762 56.118871 1.148833 13.678269 -43.194101 71.128892 -36.663379 6.525695 25.090196 -66.135327 
1.828963 0.381458 0.933357 -1.843542 6.836859 96.023495 8.406315 -5.036545 -27.854731 -7.340852 4.110403 36.339475 11.560577 15.511744 -33.603805 0.000000 -0.000000 0.000000 -4.416658 4.888527 -40.632902 3.081959 -12.304129 58.338417 5.991789 -4.727659 -12.132308 0.000000 -0.000000 0.000000 0.745095 0.596223 6.642792 4.671480 1.904134 -1.886578 1.239739 0.275374 0.103513 14.814339 15.858386 -3.538055 9.734161 15.810114 7.881905 -32.063574 -4.990402 7.587545 -54.795544 -8.742342 11.344376 25.454259 -53.605589 -18.590252 3.253531 -17.525679 -29.041761 25.738214 2.301882 4.737297 54.339840 -2.324306 15.098508 -30.647499 74.030991 -24.890890 8.818833 28.717801 -67.641246 
1.827334 0.380795 0.929517 -1.906002 6.987376 96.057251 9.016375 -5.457787 -28.480438 -7.451320 4.757341 37.400124 11.514565 15.734053 -34.166543 0.000000 -0.000000 0.000000 -5.786342 4.143860 -39.985897 2.714199 -13.005209 59.653679 7.355702 -4.250702 -11.545125 0.000000 -0.000000 0.000000 0.240733 1.352447 5.932394 5.403073 1.765787 -0.771458 1.363032 0.685632 0.220494 15.618577 16.429546 -2.969955 10.274495 14.897574 8.403913 -32.650325 -5.064369 8.257204 -54.468414 -9.336369 11.026723 27.901710 -52.461756 -22.979364 2.234156 -18.586656 -30.669241 26.422209 0.968440 7.518047 50.499522 -2.324015 13.437312 -25.817987 77.023309 -19.262149 11.470778 32.073978 -69.417977 
1.824367 0.380126 0.927866 -2.230491 6.916314 95.324291 8.873846 -4.916535 -27.651960 -7.850009 3.987959 37.816107 11.227056 16.317162 -34.462233 0.000000 -0.000000 0.000000 -6.587488 3.188642 -37.346971 2.695251 -12.060401 59.168441 8.534338 -4.437458 -11.367007 0.000000 -0.000000 0.000000 0.874895 1.072280 6.727664 4.389566 1.994755 -1.792284 1.122901 0.519781 1.022823 16.528416 14.942012 -0.452121 11.089433 16.747663 9.070488 -32.272503 -4.649135 7.813910 -54.511212 -8.838298 10.755081 29.046616 -50.186334 -26.049099 4.219447 -17.675807 -32.226833 24.996024 0.817024 3.680691 50.915082 -5.518224 14.524416 -8.050374 75.483969 -2.450134 15.442734 34.196141 -66.084971 
1.820992 0.378504 0.927321 -2.212543 6.808499 95.133506 8.990677 -5.188996 -27.242935 -7.946229 3.982165 37.716696 11.217463 16.652516 -34.523615 0.000000 -0.000000 0.000000 -7.640434 2.166610 -34.573660 2.897224 -11.195004 57.301757 8.774228 -4.925707 -11.297246 0.000000 -0.000000 0.000000 0.925865 1.676927 6.001662 4.407557 1.615217 -0.926125 1.130611 0.582061 1.169549 16.221885 14.306417 0.750490 11.838613 16.901432 9.361875 -32.352122 -4.467046 7.604184 -54.109634 -8.593167 9.852774 29.102867 -47.952589 -28.513378 5.560482 -16.738142 -31.799310 24.683765 0.518231 3.178679 49.699770 -7.605773 14.349748 -4.413793 74.041141 1.064771 17.740215 34.697914 -63.933100 
1.815967 0.375783 0.929294 -2.239112 6.348729 94.723055 8.520972 -5.311458 -26.188167 -7.765078 3.558121 37.063718 11.212660 16.953927 -34.484324 0.000000 -0.000000 0.000000 -8.670379 0.469242 -30.125929 3.728310 -9.066600 53.142950 11.141167 -3.637624 -11.125365 0.000000 -0.000000 0.000000 0.940098 2.270515 5.839907 4.032287 1.354612 -1.131491 1.032027 0.776217 1.733565 16.099250 13.301377 1.796229 12.034732 16.921248 9.793226 -32.320770 -3.568361 7.128025 -53.646696 -8.695593 8.821446 29.230956 -44.456506 -29.934722 6.367112 -16.029708 -31.951947 24.266340 -0.437454 3.469096 49.999253 -9.224971 13.765269 -7.882649 70.330045 -3.577268 19.854568 34.115820 -61.221675 
1.809695 0.373421 0.932018 -2.477775 6.160475 94.475679 8.445574 -4.693504 -25.359429 -7.553115 3.072094 36.363896 11.018096 16.576784 -34.429691 0.000000 -0.000000 0.000000 -8.647664 -0.694091 -26.460393 5.424735 -6.390965 48.676880 13.462074 -0.113870 -12.432785 0.000000 -0.000000 0.000000 0.955199 2.852117 5.627607 3.774252 1.132361 -1.165085 1.035259 0.947258 1.916990 15.739374 12.594764 1.985776 12.153481 16.859229 10.426949 -32.015001 -2.702624 6.228486 -53.587248 -8.548530 7.839428 29.916793 -41.645366 -32.170670 7.085836 -15.214706 -32.815713 23.902702 -1.280234 3.656255 51.112652 -10.047376 12.947619 -13.035181 65.673623 -10.412182 21.813620 33.168631 -58.132267 
1.802496 0.370621 0.935042 -2.547047 6.005506 94.433411 8.426835 -4.137125 -24.646095 -7.444125 2.275083 35.305192 11.171572 16.422575 -33.986365 0.000000 -0.000000 0.000000 -8.376769 -2.368209 -23.752950 7.863608 -4.155328 44.694205 12.276874 1.332493 -14.773262 0.000000 -0.000000 0.000000 1.014168 3.237668 4.994657 3.536791 0.911652 -0.994729 0.960447 1.006983 2.219802 15.076735 12.110034 1.741313 12.348789 16.684349 10.793577 -31.461612 -1.520984 5.167995 -53.426783 -8.489168 6.634438 30.699596 -39.655300 -34.739648 9.008298 -13.403000 -34.184480 23.856205 -2.170673 3.412783 52.002826 -10.454760 11.309090 -16.179092 60.390918 -15.454616 22.620183 30.824969 -55.163738 
1.795679 0.368434 0.938931 -2.511240 5.790008 94.488841 8.322713 -4.168790 -23.870119 -7.266721 1.564624 33.825837 11.434121 16.705292 -33.241301 0.000000 -0.000000 0.000000 -8.283212 -3.993886 -22.168745 9.793804 -4.058474 41.934279 10.182007 0.487939 -16.875230 0.000000 -0.000000 0.000000 1.263389 3.356156 4.536555 3.221743 0.800921 -1.107789 0.716149 1.060882 2.573364 14.250635 11.712235 1.460923 12.345594 16.368093 10.627247 -30.977643 -0.038953 4.232929 -52.911516 -8.414561 5.453834 31.403230 -38.672998 -36.329225 11.425328 -10.972751 -35.187336 23.918287 -3.186576 3.165946 52.878416 -10.300256 9.599449 -18.611599 55.434335 -19.489000 19.599695 25.781478 -52.602097 
1.789715 0.366542 0.944157 -2.585055 5.450345 94.264722 7.969220 -4.410162 -22.544942 -6.906055 0.877515 31.999728 11.385770 17.098493 -32.358462 0.000000 -0.000000 0.000000 -8.418610 -4.765918 -19.957560 10.257789 -5.689197 38.550137 8.322459 0.072875 -17.934018 0.000000 -0.000000 0.000000 1.880751 3.271021 4.621602 2.553531 0.661968 -1.462860 0.279911 1.268117 2.822477 13.362583 11.479560 1.621341 12.095749 15.856134 9.735576 -30.661223 1.241273 3.609581 -52.144834 -8.078504 4.112057 31.966090 -38.240110 -37.310041 13.836132 -8.557576 -35.066424 23.743463 -3.915409 3.187526 53.976804 -9.683654 7.862641 -19.147768 51.163183 -21.070279 12.065229 18.591762 -49.923581 
1.783611 0.364733 0.950137 -2.924717 5.230567 93.890862 7.708170 -4.219034 -20.984561 -6.408951 0.146918 30.103312 11.002891 17.240518 -31.468816 0.000000 -0.000000 0.000000 -7.892917 -4.537639 -17.105162 9.976459 -6.025681 34.167818 6.868736 -0.374203 -18.210350 0.000000 -0.000000 0.000000 2.722053 3.113297 4.805944 1.764886 0.546123 -1.769248 -0.171180 1.563339 2.985904 12.535509 11.334010 1.814477 11.893242 15.297727 8.638548 -30.414464 2.270587 3.148800 -51.160728 -7.515352 2.765385 31.674683 -38.062053 -37.561777 16.784953 -6.115818 -33.653361 23.395229 -4.145721 3.916906 55.352453 -8.246903 6.844024 -19.012485 46.993340 -22.880644 -0.247508 9.650000 -46.537897 
1.775636 0.363270 0.955553 -3.414211 5.520354 93.813931 8.217766 -3.486027 -19.916117 -5.881681 -0.305806 28.427452 10.390318 16.773711 -30.731977 0.000000 -0.000000 0.000000 -6.304403 -4.413874 -15.589904 9.564784 -4.621877 31.297609 6.291782 -0.796492 -18.222256 0.000000 -0.000000 0.000000 3.510247 2.912164 4.498154 1.316124 0.574770 -1.814929 -0.381180 1.778019 2.883125 11.822981 11.498535 1.599390 11.868723 14.964565 8.145085 -30.091078 3.054354 2.686093 -50.493866 -6.538770 1.587949 31.404355 -37.675180 -37.293771 18.547584 -4.920733 -32.620113 23.104045 -3.812880 4.856490 56.740043 -6.710101 6.305787 -19.651500 42.566471 -26.119631 -10.417532 3.204268 -43.620987 
